%TF.GenerationSoftware,KiCad,Pcbnew,9.0.6*%
%TF.CreationDate,2026-03-07T07:56:27+01:00*%
%TF.ProjectId,fliphackV1,666c6970-6861-4636-9b56-312e6b696361,rev?*%
%TF.SameCoordinates,Original*%
%TF.FileFunction,Soldermask,Bot*%
%TF.FilePolarity,Negative*%
%FSLAX46Y46*%
G04 Gerber Fmt 4.6, Leading zero omitted, Abs format (unit mm)*
G04 Created by KiCad (PCBNEW 9.0.6) date 2026-03-07 07:56:27*
%MOMM*%
%LPD*%
G01*
G04 APERTURE LIST*
G04 Aperture macros list*
%AMRoundRect*
0 Rectangle with rounded corners*
0 $1 Rounding radius*
0 $2 $3 $4 $5 $6 $7 $8 $9 X,Y pos of 4 corners*
0 Add a 4 corners polygon primitive as box body*
4,1,4,$2,$3,$4,$5,$6,$7,$8,$9,$2,$3,0*
0 Add four circle primitives for the rounded corners*
1,1,$1+$1,$2,$3*
1,1,$1+$1,$4,$5*
1,1,$1+$1,$6,$7*
1,1,$1+$1,$8,$9*
0 Add four rect primitives between the rounded corners*
20,1,$1+$1,$2,$3,$4,$5,0*
20,1,$1+$1,$4,$5,$6,$7,0*
20,1,$1+$1,$6,$7,$8,$9,0*
20,1,$1+$1,$8,$9,$2,$3,0*%
G04 Aperture macros list end*
%ADD10R,1.700000X1.700000*%
%ADD11C,1.700000*%
%ADD12R,1.800000X1.800000*%
%ADD13C,1.800000*%
%ADD14C,0.650000*%
%ADD15O,1.000000X2.100000*%
%ADD16O,1.000000X1.600000*%
%ADD17R,2.000000X2.000000*%
%ADD18C,2.000000*%
%ADD19RoundRect,0.375000X-1.375000X-0.375000X1.375000X-0.375000X1.375000X0.375000X-1.375000X0.375000X0*%
%ADD20RoundRect,0.250200X0.649800X-0.649800X0.649800X0.649800X-0.649800X0.649800X-0.649800X-0.649800X0*%
G04 APERTURE END LIST*
D10*
%TO.C,J11*%
X143000000Y-95450000D03*
D11*
X143000000Y-97990000D03*
X143000000Y-100530000D03*
X143000000Y-103070000D03*
X143000000Y-105610000D03*
X143000000Y-108150000D03*
X143000000Y-110690000D03*
X143000000Y-113230000D03*
%TD*%
D12*
%TO.C,D8*%
X189750000Y-103960000D03*
D13*
X189750000Y-106500000D03*
%TD*%
D10*
%TO.C,J6*%
X159380000Y-83500000D03*
D11*
X159380000Y-80960000D03*
X161920000Y-83500000D03*
X161920000Y-80960000D03*
X164460000Y-83500000D03*
X164460000Y-80960000D03*
X167000000Y-83500000D03*
X167000000Y-80960000D03*
%TD*%
D14*
%TO.C,J1*%
X170110000Y-146145000D03*
X175890000Y-146145000D03*
D15*
X168680000Y-145645000D03*
D16*
X168680000Y-149825000D03*
D15*
X177320000Y-145645000D03*
D16*
X177320000Y-149825000D03*
%TD*%
D12*
%TO.C,D7*%
X189750000Y-97460000D03*
D13*
X189750000Y-100000000D03*
%TD*%
D17*
%TO.C,BZ1*%
X173200000Y-82500000D03*
D18*
X180800000Y-82500000D03*
%TD*%
D10*
%TO.C,J4*%
X143380000Y-83540000D03*
D11*
X143380000Y-81000000D03*
X145920000Y-83540000D03*
X145920000Y-81000000D03*
X148460000Y-83540000D03*
X148460000Y-81000000D03*
X151000000Y-83540000D03*
X151000000Y-81000000D03*
%TD*%
D12*
%TO.C,SW1*%
X180420000Y-141460000D03*
D13*
X190580000Y-141460000D03*
X190580000Y-144000000D03*
X190580000Y-146540000D03*
X180420000Y-146540000D03*
X180420000Y-144000000D03*
D19*
X182960000Y-138920000D03*
X182960000Y-149080000D03*
X188040000Y-138920000D03*
X188040000Y-149080000D03*
%TD*%
D10*
%TO.C,J2*%
X142250000Y-149750000D03*
D11*
X144790000Y-149750000D03*
%TD*%
D10*
%TO.C,J9*%
X148000000Y-128960000D03*
D11*
X148000000Y-131500000D03*
X148000000Y-134040000D03*
X148000000Y-136580000D03*
%TD*%
D10*
%TO.C,J12*%
X143500000Y-128920000D03*
D11*
X143500000Y-131460000D03*
X143500000Y-134000000D03*
X143500000Y-136540000D03*
%TD*%
D20*
%TO.C,U2*%
X187975000Y-83540000D03*
D13*
X187975000Y-81000000D03*
X187975000Y-78460000D03*
%TD*%
D10*
%TO.C,J10*%
X179000000Y-123380000D03*
D11*
X179000000Y-125920000D03*
X179000000Y-128460000D03*
X179000000Y-131000000D03*
X179000000Y-133540000D03*
X179000000Y-136080000D03*
%TD*%
M02*
