M48
; DRILL file {KiCad 9.0.6} date 2026-03-07T07:56:30+0100
; FORMAT={-:-/ absolute / metric / decimal}
; #@! TF.CreationDate,2026-03-07T07:56:30+01:00
; #@! TF.GenerationSoftware,Kicad,Pcbnew,9.0.6
; #@! TF.FileFunction,Plated,1,2,PTH
FMAT,2
METRIC
; #@! TA.AperFunction,Plated,PTH,ComponentDrill
T1C0.200
; #@! TA.AperFunction,Plated,PTH,ViaDrill
T2C0.300
; #@! TA.AperFunction,Plated,PTH,ComponentDrill
T3C0.600
; #@! TA.AperFunction,Plated,PTH,ComponentDrill
T4C0.900
; #@! TA.AperFunction,Plated,PTH,ComponentDrill
T5C1.000
%
G90
G05
T1
X161.204Y-102.2
X161.204Y-103.6
X161.904Y-101.5
X161.904Y-102.9
X161.904Y-104.3
X162.604Y-102.2
X162.604Y-103.6
X163.304Y-101.5
X163.304Y-102.9
X163.304Y-104.3
X164.004Y-102.2
X164.004Y-103.6
T2
X141.75Y-147.5
X143.0Y-115.75
X143.25Y-85.75
X143.5Y-125.75
X144.0Y-141.5
X145.75Y-109.0
X145.75Y-114.25
X145.75Y-116.25
X145.75Y-133.25
X145.75Y-135.25
X145.75Y-144.75
X147.75Y-148.0
X148.0Y-138.75
X148.25Y-145.0
X148.75Y-86.25
X150.25Y-97.5
X150.5Y-96.5
X150.5Y-142.75
X150.75Y-102.5
X151.0Y-119.25
X151.5Y-134.75
X151.75Y-115.25
X151.958Y-108.208
X152.0Y-94.75
X153.25Y-145.25
X153.27Y-128.77
X153.549Y-126.799
X153.75Y-99.5
X153.75Y-107.25
X154.5Y-97.75
X155.25Y-78.5
X155.75Y-88.5
X156.75Y-97.75
X156.75Y-125.25
X156.75Y-127.0
X156.751Y-92.75
X157.25Y-107.25
X157.25Y-108.25
X157.75Y-95.25
X157.75Y-130.5
X157.75Y-144.0
X158.4Y-146.6
X158.5Y-114.75
X159.25Y-85.75
X159.25Y-129.5
X159.5Y-136.75
X160.169Y-93.5
X160.199Y-117.051
X163.0Y-145.25
X164.4Y-128.6
X164.75Y-114.5
X165.25Y-131.5
X165.895Y-110.605
X166.095Y-111.655
X166.241Y-108.753
X166.313Y-101.75
X166.75Y-144.5
X167.0Y-101.25
X167.0Y-108.5
X167.25Y-141.25
X167.75Y-139.0
X170.25Y-78.5
X170.6Y-142.0
X170.6Y-144.25
X171.25Y-93.5
X172.0Y-114.25
X172.75Y-131.75
X172.75Y-135.25
X172.75Y-141.5
X173.75Y-119.25
X174.25Y-94.474
X175.4Y-144.15
X175.5Y-139.75
X175.75Y-94.5
X176.5Y-134.0
X176.75Y-104.25
X177.5Y-141.75
X178.75Y-116.5
X179.0Y-114.0
X179.25Y-106.75
X180.25Y-105.55
X180.5Y-92.5
X185.2Y-113.23
X185.33Y-136.08
X185.5Y-150.75
X185.75Y-82.0
X187.5Y-116.75
X188.0Y-115.0
X188.75Y-126.0
X189.5Y-91.0
X189.75Y-113.25
X191.75Y-119.75
T4
X187.975Y-78.46
X187.975Y-81.0
X187.975Y-83.54
X189.75Y-97.46
X189.75Y-100.0
X189.75Y-103.96
X189.75Y-106.5
T5
X142.25Y-149.75
X143.0Y-95.45
X143.0Y-97.99
X143.0Y-100.53
X143.0Y-103.07
X143.0Y-105.61
X143.0Y-108.15
X143.0Y-110.69
X143.0Y-113.23
X143.38Y-81.0
X143.38Y-83.54
X143.5Y-128.92
X143.5Y-131.46
X143.5Y-134.0
X143.5Y-136.54
X144.79Y-149.75
X145.92Y-81.0
X145.92Y-83.54
X148.0Y-128.96
X148.0Y-131.5
X148.0Y-134.04
X148.0Y-136.58
X148.46Y-81.0
X148.46Y-83.54
X151.0Y-81.0
X151.0Y-83.54
X159.38Y-80.96
X159.38Y-83.5
X161.92Y-80.96
X161.92Y-83.5
X164.46Y-80.96
X164.46Y-83.5
X167.0Y-80.96
X167.0Y-83.5
X173.2Y-82.5
X179.0Y-123.38
X179.0Y-125.92
X179.0Y-128.46
X179.0Y-131.0
X179.0Y-133.54
X179.0Y-136.08
X180.42Y-141.46
X180.42Y-144.0
X180.42Y-146.54
X180.8Y-82.5
X182.96Y-138.92
X182.96Y-149.08
X188.04Y-138.92
X188.04Y-149.08
X190.58Y-141.46
X190.58Y-144.0
X190.58Y-146.54
T3
G00X168.68Y-145.095
M15
G01X168.68Y-146.195
M16
G05
G00X168.68Y-149.525
M15
G01X168.68Y-150.125
M16
G05
G00X177.32Y-145.095
M15
G01X177.32Y-146.195
M16
G05
G00X177.32Y-149.525
M15
G01X177.32Y-150.125
M16
G05
M30
