%TF.GenerationSoftware,KiCad,Pcbnew,9.0.6*%
%TF.CreationDate,2026-03-07T07:56:27+01:00*%
%TF.ProjectId,fliphackV1,666c6970-6861-4636-9b56-312e6b696361,rev?*%
%TF.SameCoordinates,Original*%
%TF.FileFunction,Soldermask,Top*%
%TF.FilePolarity,Negative*%
%FSLAX46Y46*%
G04 Gerber Fmt 4.6, Leading zero omitted, Abs format (unit mm)*
G04 Created by KiCad (PCBNEW 9.0.6) date 2026-03-07 07:56:27*
%MOMM*%
%LPD*%
G01*
G04 APERTURE LIST*
G04 Aperture macros list*
%AMRoundRect*
0 Rectangle with rounded corners*
0 $1 Rounding radius*
0 $2 $3 $4 $5 $6 $7 $8 $9 X,Y pos of 4 corners*
0 Add a 4 corners polygon primitive as box body*
4,1,4,$2,$3,$4,$5,$6,$7,$8,$9,$2,$3,0*
0 Add four circle primitives for the rounded corners*
1,1,$1+$1,$2,$3*
1,1,$1+$1,$4,$5*
1,1,$1+$1,$6,$7*
1,1,$1+$1,$8,$9*
0 Add four rect primitives between the rounded corners*
20,1,$1+$1,$2,$3,$4,$5,0*
20,1,$1+$1,$4,$5,$6,$7,0*
20,1,$1+$1,$6,$7,$8,$9,0*
20,1,$1+$1,$8,$9,$2,$3,0*%
G04 Aperture macros list end*
%ADD10RoundRect,0.135000X0.185000X-0.135000X0.185000X0.135000X-0.185000X0.135000X-0.185000X-0.135000X0*%
%ADD11RoundRect,0.140000X0.170000X-0.140000X0.170000X0.140000X-0.170000X0.140000X-0.170000X-0.140000X0*%
%ADD12R,1.700000X1.700000*%
%ADD13C,1.700000*%
%ADD14R,1.500000X0.900000*%
%ADD15R,0.900000X1.500000*%
%ADD16C,0.600000*%
%ADD17R,3.900000X3.900000*%
%ADD18RoundRect,0.135000X0.135000X0.185000X-0.135000X0.185000X-0.135000X-0.185000X0.135000X-0.185000X0*%
%ADD19RoundRect,0.135000X-0.135000X-0.185000X0.135000X-0.185000X0.135000X0.185000X-0.135000X0.185000X0*%
%ADD20R,1.000000X0.750000*%
%ADD21RoundRect,0.140000X-0.170000X0.140000X-0.170000X-0.140000X0.170000X-0.140000X0.170000X0.140000X0*%
%ADD22RoundRect,0.140000X0.140000X0.170000X-0.140000X0.170000X-0.140000X-0.170000X0.140000X-0.170000X0*%
%ADD23C,1.000000*%
%ADD24R,1.800000X1.800000*%
%ADD25C,1.800000*%
%ADD26RoundRect,0.135000X-0.185000X0.135000X-0.185000X-0.135000X0.185000X-0.135000X0.185000X0.135000X0*%
%ADD27RoundRect,0.250000X0.262500X0.450000X-0.262500X0.450000X-0.262500X-0.450000X0.262500X-0.450000X0*%
%ADD28RoundRect,0.218750X-0.256250X0.218750X-0.256250X-0.218750X0.256250X-0.218750X0.256250X0.218750X0*%
%ADD29C,0.650000*%
%ADD30RoundRect,0.150000X-0.150000X-0.500000X0.150000X-0.500000X0.150000X0.500000X-0.150000X0.500000X0*%
%ADD31RoundRect,0.075000X-0.075000X-0.575000X0.075000X-0.575000X0.075000X0.575000X-0.075000X0.575000X0*%
%ADD32O,1.000000X2.100000*%
%ADD33O,1.000000X1.600000*%
%ADD34RoundRect,0.150000X-0.150000X0.512500X-0.150000X-0.512500X0.150000X-0.512500X0.150000X0.512500X0*%
%ADD35R,2.000000X2.000000*%
%ADD36C,2.000000*%
%ADD37RoundRect,0.150000X0.150000X-0.512500X0.150000X0.512500X-0.150000X0.512500X-0.150000X-0.512500X0*%
%ADD38RoundRect,0.375000X-1.375000X-0.375000X1.375000X-0.375000X1.375000X0.375000X-1.375000X0.375000X0*%
%ADD39RoundRect,0.150000X0.150000X-0.587500X0.150000X0.587500X-0.150000X0.587500X-0.150000X-0.587500X0*%
%ADD40RoundRect,0.150000X0.587500X0.150000X-0.587500X0.150000X-0.587500X-0.150000X0.587500X-0.150000X0*%
%ADD41RoundRect,0.250200X0.649800X-0.649800X0.649800X0.649800X-0.649800X0.649800X-0.649800X-0.649800X0*%
%ADD42RoundRect,0.150000X-0.512500X-0.150000X0.512500X-0.150000X0.512500X0.150000X-0.512500X0.150000X0*%
%ADD43RoundRect,0.250000X-1.000000X-0.650000X1.000000X-0.650000X1.000000X0.650000X-1.000000X0.650000X0*%
%ADD44RoundRect,0.150000X-0.587500X-0.150000X0.587500X-0.150000X0.587500X0.150000X-0.587500X0.150000X0*%
G04 APERTURE END LIST*
D10*
%TO.C,R2*%
X172250000Y-143240000D03*
X172250000Y-142220000D03*
%TD*%
D11*
%TO.C,C8*%
X158200000Y-132680000D03*
X158200000Y-131720000D03*
%TD*%
D12*
%TO.C,J11*%
X143000000Y-95450000D03*
D13*
X143000000Y-97990000D03*
X143000000Y-100530000D03*
X143000000Y-103070000D03*
X143000000Y-105610000D03*
X143000000Y-108150000D03*
X143000000Y-110690000D03*
X143000000Y-113230000D03*
%TD*%
D14*
%TO.C,U1*%
X155354394Y-95180000D03*
X155354394Y-96450000D03*
X155354394Y-97720000D03*
X155354394Y-98990000D03*
X155354394Y-100260000D03*
X155354394Y-101530000D03*
X155354394Y-102800000D03*
X155354394Y-104070000D03*
X155354394Y-105340000D03*
X155354394Y-106610000D03*
X155354394Y-107880000D03*
X155354394Y-109150000D03*
X155354394Y-110420000D03*
X155354394Y-111690000D03*
D15*
X157119394Y-112940000D03*
X158389394Y-112940000D03*
X159659394Y-112940000D03*
X160929394Y-112940000D03*
X162199394Y-112940000D03*
X163469394Y-112940000D03*
X164739394Y-112940000D03*
X166009394Y-112940000D03*
X167279394Y-112940000D03*
X168549394Y-112940000D03*
X169819394Y-112940000D03*
X171089394Y-112940000D03*
D14*
X172854394Y-111690000D03*
X172854394Y-110420000D03*
X172854394Y-109150000D03*
X172854394Y-107880000D03*
X172854394Y-106610000D03*
X172854394Y-105340000D03*
X172854394Y-104070000D03*
X172854394Y-102800000D03*
X172854394Y-101530000D03*
X172854394Y-100260000D03*
X172854394Y-98990000D03*
X172854394Y-97720000D03*
X172854394Y-96450000D03*
X172854394Y-95180000D03*
D16*
X161204394Y-102200000D03*
X161204394Y-103600000D03*
X161904394Y-101500000D03*
X161904394Y-102900000D03*
X161904394Y-104300000D03*
X162604394Y-102200000D03*
D17*
X162604394Y-102900000D03*
D16*
X162604394Y-103600000D03*
X163304394Y-101500000D03*
X163304394Y-102900000D03*
X163304394Y-104300000D03*
X164004394Y-102200000D03*
X164004394Y-103600000D03*
%TD*%
D18*
%TO.C,R5*%
X176510000Y-101250000D03*
X175490000Y-101250000D03*
%TD*%
D19*
%TO.C,R15*%
X152990000Y-140500000D03*
X154010000Y-140500000D03*
%TD*%
D11*
%TO.C,C3*%
X185750000Y-80230000D03*
X185750000Y-79270000D03*
%TD*%
D20*
%TO.C,Reset2*%
X150500000Y-147125000D03*
X156500000Y-147125000D03*
X150500000Y-150875000D03*
X156500000Y-150875000D03*
%TD*%
D21*
%TO.C,C13*%
X188000000Y-112020000D03*
X188000000Y-112980000D03*
%TD*%
D22*
%TO.C,C2*%
X144000000Y-147500000D03*
X143040000Y-147500000D03*
%TD*%
D23*
%TO.C,+3V3*%
X153000000Y-116500000D03*
%TD*%
D24*
%TO.C,D8*%
X189750000Y-103960000D03*
D25*
X189750000Y-106500000D03*
%TD*%
D26*
%TO.C,R21*%
X157750000Y-144750000D03*
X157750000Y-145770000D03*
%TD*%
D22*
%TO.C,C20*%
X159550000Y-124437501D03*
X158590000Y-124437501D03*
%TD*%
D27*
%TO.C,R9*%
X185412500Y-104000000D03*
X183587500Y-104000000D03*
%TD*%
D22*
%TO.C,C22*%
X169980000Y-141250000D03*
X169020000Y-141250000D03*
%TD*%
D12*
%TO.C,J6*%
X159380000Y-83500000D03*
D13*
X159380000Y-80960000D03*
X161920000Y-83500000D03*
X161920000Y-80960000D03*
X164460000Y-83500000D03*
X164460000Y-80960000D03*
X167000000Y-83500000D03*
X167000000Y-80960000D03*
%TD*%
D10*
%TO.C,R12*%
X156750000Y-133510000D03*
X156750000Y-132490000D03*
%TD*%
D20*
%TO.C,Flash1*%
X160000000Y-147125000D03*
X166000000Y-147125000D03*
X160000000Y-150875000D03*
X166000000Y-150875000D03*
%TD*%
D27*
%TO.C,R8*%
X185412500Y-97500000D03*
X183587500Y-97500000D03*
%TD*%
D10*
%TO.C,R11*%
X178250000Y-105560000D03*
X178250000Y-104540000D03*
%TD*%
D28*
%TO.C,D1*%
X157500000Y-139962500D03*
X157500000Y-141537500D03*
%TD*%
D29*
%TO.C,J1*%
X170110000Y-146145000D03*
X175890000Y-146145000D03*
D30*
X169800000Y-145005000D03*
X170600000Y-145005000D03*
D31*
X171750000Y-145005000D03*
X172750000Y-145005000D03*
X173250000Y-145005000D03*
X174250000Y-145005000D03*
D30*
X175400000Y-145005000D03*
X176200000Y-145005000D03*
X176200000Y-145005000D03*
X175400000Y-145005000D03*
D31*
X174750000Y-145005000D03*
X173750000Y-145005000D03*
X172250000Y-145005000D03*
X171250000Y-145005000D03*
D30*
X170600000Y-145005000D03*
X169800000Y-145005000D03*
D32*
X168680000Y-145645000D03*
D33*
X168680000Y-149825000D03*
D32*
X177320000Y-145645000D03*
D33*
X177320000Y-149825000D03*
%TD*%
D10*
%TO.C,R18*%
X173250000Y-143250000D03*
X173250000Y-142230000D03*
%TD*%
D34*
%TO.C,U4*%
X173700000Y-137862500D03*
X172750000Y-137862500D03*
X171800000Y-137862500D03*
X171800000Y-140137500D03*
X172750000Y-140137500D03*
X173700000Y-140137500D03*
%TD*%
D10*
%TO.C,R19*%
X156750000Y-130220000D03*
X156750000Y-129200000D03*
%TD*%
D22*
%TO.C,C35*%
X159350000Y-125937501D03*
X158390000Y-125937501D03*
%TD*%
D24*
%TO.C,D7*%
X189750000Y-97460000D03*
D25*
X189750000Y-100000000D03*
%TD*%
D22*
%TO.C,C10*%
X148500000Y-149250000D03*
X147540000Y-149250000D03*
%TD*%
D10*
%TO.C,R1*%
X156000000Y-142270000D03*
X156000000Y-141250000D03*
%TD*%
D35*
%TO.C,BZ1*%
X173200000Y-82500000D03*
D36*
X180800000Y-82500000D03*
%TD*%
D37*
%TO.C,U5*%
X160650000Y-128187501D03*
X161600000Y-128187501D03*
X162550000Y-128187501D03*
X162550000Y-125912501D03*
X160650000Y-125912501D03*
%TD*%
D18*
%TO.C,R3*%
X184000000Y-78500000D03*
X182980000Y-78500000D03*
%TD*%
D22*
%TO.C,C6*%
X169980000Y-140250000D03*
X169020000Y-140250000D03*
%TD*%
D12*
%TO.C,J4*%
X143380000Y-83540000D03*
D13*
X143380000Y-81000000D03*
X145920000Y-83540000D03*
X145920000Y-81000000D03*
X148460000Y-83540000D03*
X148460000Y-81000000D03*
X151000000Y-83540000D03*
X151000000Y-81000000D03*
%TD*%
D22*
%TO.C,C5*%
X153000000Y-97750000D03*
X152040000Y-97750000D03*
%TD*%
D24*
%TO.C,SW1*%
X180420000Y-141460000D03*
D25*
X190580000Y-141460000D03*
X190580000Y-144000000D03*
X190580000Y-146540000D03*
X180420000Y-146540000D03*
X180420000Y-144000000D03*
D38*
X182960000Y-138920000D03*
X182960000Y-149080000D03*
X188040000Y-138920000D03*
X188040000Y-149080000D03*
%TD*%
D12*
%TO.C,J2*%
X142250000Y-149750000D03*
D13*
X144790000Y-149750000D03*
%TD*%
D12*
%TO.C,J9*%
X148000000Y-128960000D03*
D13*
X148000000Y-131500000D03*
X148000000Y-134040000D03*
X148000000Y-136580000D03*
%TD*%
D22*
%TO.C,C4*%
X152980000Y-96500000D03*
X152020000Y-96500000D03*
%TD*%
D39*
%TO.C,Q3*%
X177050000Y-91937500D03*
X178950000Y-91937500D03*
X178000000Y-90062500D03*
%TD*%
D21*
%TO.C,C12*%
X186250000Y-114050000D03*
X186250000Y-115010000D03*
%TD*%
D12*
%TO.C,J12*%
X143500000Y-128920000D03*
D13*
X143500000Y-131460000D03*
X143500000Y-134000000D03*
X143500000Y-136540000D03*
%TD*%
D40*
%TO.C,Q1*%
X161687500Y-134000000D03*
X161687500Y-132100000D03*
X159812500Y-133050000D03*
%TD*%
D41*
%TO.C,U2*%
X187975000Y-83540000D03*
D25*
X187975000Y-81000000D03*
X187975000Y-78460000D03*
%TD*%
D21*
%TO.C,C11*%
X163400000Y-130720000D03*
X163400000Y-131680000D03*
%TD*%
D42*
%TO.C,U3*%
X152225000Y-141850000D03*
X152225000Y-142800000D03*
X152225000Y-143750000D03*
X154500000Y-143750000D03*
X154500000Y-141850000D03*
%TD*%
D22*
%TO.C,C7*%
X160830000Y-130750000D03*
X159870000Y-130750000D03*
%TD*%
D19*
%TO.C,R14*%
X168980000Y-142750000D03*
X170000000Y-142750000D03*
%TD*%
D21*
%TO.C,C9*%
X189750000Y-110020000D03*
X189750000Y-110980000D03*
%TD*%
D23*
%TO.C,GND1*%
X180250000Y-103800000D03*
%TD*%
D21*
%TO.C,C36*%
X156000000Y-144500000D03*
X156000000Y-145460000D03*
%TD*%
D19*
%TO.C,R20*%
X159980000Y-135500000D03*
X161000000Y-135500000D03*
%TD*%
D12*
%TO.C,J10*%
X179000000Y-123380000D03*
D13*
X179000000Y-125920000D03*
X179000000Y-128460000D03*
X179000000Y-131000000D03*
X179000000Y-133540000D03*
X179000000Y-136080000D03*
%TD*%
D26*
%TO.C,R17*%
X175500000Y-141750000D03*
X175500000Y-142770000D03*
%TD*%
D43*
%TO.C,D4*%
X165400000Y-134400000D03*
X169400000Y-134400000D03*
%TD*%
D19*
%TO.C,R13*%
X177740000Y-94250000D03*
X178760000Y-94250000D03*
%TD*%
D26*
%TO.C,R4*%
X149250000Y-146750000D03*
X149250000Y-147770000D03*
%TD*%
D44*
%TO.C,Q2*%
X178312500Y-99600000D03*
X178312500Y-101500000D03*
X180187500Y-100550000D03*
%TD*%
D22*
%TO.C,C1*%
X152980000Y-99000000D03*
X152020000Y-99000000D03*
%TD*%
M02*
